# xmcd
#
# Track frame offsets:
#	300
#	8523
#	28720
#	43306
#	53805
#	68630
#	77820
#	87341
#	98081
#	108934
#	121546
#	129988
#
# Disc length: 2162 seconds
#
# Revision: 1
# Processed by: cddbd v1.5.2PL0 Copyright (c) Steve Scherf et al.
# Submitted via: audiograbber 1.83.01
#
DISCID=8c086e0c
DTITLE=Reverend Beat-Man - Surreal Folk Blues Gospel Trash Vol 2
DYEAR=2007
DGENRE=Blues
TTITLE0=Letter To Myself
TTITLE1=I See The Light
TTITLE2=Lonesome And Sad
TTITLE3=Blue Moon Of Kentucky
TTITLE4=I Want You To Feel
TTITLE5=Another Day Another Life
TTITLE6=I've Got The Devil Inside
TTITLE7=I'm Over With You
TTITLE8=Our Girls (Demo)
TTITLE9=Don't Stop To Dance
TTITLE10=Jesus
TTITLE11=The Swiss Army Knife
EXTD=
EXTT0=
EXTT1=
EXTT2=
EXTT3=
EXTT4=
EXTT5=
EXTT6=
EXTT7=
EXTT8=
EXTT9=
EXTT10=
EXTT11=
PLAYORDER=
